<svg xmlns="http://www.w3.org/2000/svg" width="1920" height="1080"><path d="M338,1318L-40,1307L640,1345Z" fill="#a96179" stroke="#a96179" stroke-width="1.51"/><path d="M881,1334L640,1345L1305,1343Z" fill="#a498ae" stroke="#a498ae" stroke-width="1.51"/><path d="M843,-264L1347,-237L1466,-241Z" fill="#d58c87" stroke="#d58c87" stroke-width="1.51"/><path d="M1466,-241L1661,-205L1894,-195Z" fill="#af7178" stroke="#af7178" stroke-width="1.51"/><path d="M1835,1249L1615,1274L2054,1318Z" fill="#4b6fb2" stroke="#4b6fb2" stroke-width="1.51"/><path d="M1615,1274L1511,1318L2054,1318Z" fill="#5577b6" stroke="#5577b6" stroke-width="1.51"/><path d="M1511,1318L1305,1343L2054,1318Z" fill="#607cba" stroke="#607cba" stroke-width="1.51"/><path d="M1981,1274L1835,1249L2054,1318Z" fill="#4060aa" stroke="#4060aa" stroke-width="1.51"/><path d="M1942,1024L2068,1182L2087,985Z" fill="#577cb9" stroke="#577cb9" stroke-width="1.51"/><path d="M2068,1182L2054,1318L2108,877Z" fill="#4c6cb1" stroke="#4c6cb1" stroke-width="1.51"/><path d="M2087,985L2068,1182L2108,877Z" fill="#5d7cb9" stroke="#5d7cb9" stroke-width="1.51"/><path d="M1968,273L1975,336L2108,223Z" fill="#ad8c92" stroke="#ad8c92" stroke-width="1.51"/><path d="M1988,855L2108,877L2109,734Z" fill="#7f94c7" stroke="#7f94c7" stroke-width="1.51"/><path d="M1927,86L2108,223L2137,82Z" fill="#ab6e7e" stroke="#ab6e7e" stroke-width="1.51"/><path d="M2063,-51L1927,86L2137,82Z" fill="#ab6076" stroke="#ab6076" stroke-width="1.51"/><path d="M2116,-160L2063,-51L2137,82Z" fill="#a2496b" stroke="#a2496b" stroke-width="1.51"/><path d="M1959,485L2046,566L2138,444Z" fill="#a8a0ae" stroke="#a8a0ae" stroke-width="1.51"/><path d="M1975,336L1959,485L2138,444Z" fill="#aa9ea5" stroke="#aa9ea5" stroke-width="1.51"/><path d="M2108,223L1975,336L2138,444Z" fill="#a98c96" stroke="#a98c96" stroke-width="1.51"/><path d="M2046,566L2109,734L2138,444Z" fill="#a09cb8" stroke="#a09cb8" stroke-width="1.51"/><path d="M2109,734L2108,877L2138,444Z" fill="#9296c6" stroke="#9296c6" stroke-width="1.51"/><path d="M2137,82L2108,223L2138,444Z" fill="#a87888" stroke="#a87888" stroke-width="1.51"/><path d="M1981,1274L2054,1318L2068,1182Z" fill="#3f5ba7" stroke="#3f5ba7" stroke-width="1.51"/><path d="M1988,855L2087,985L2108,877Z" fill="#708dc3" stroke="#708dc3" stroke-width="1.51"/><path d="M1927,86L1968,273L2108,223Z" fill="#af8288" stroke="#af8288" stroke-width="1.51"/><path d="M2046,566L1893,677L2109,734Z" fill="#9aa5c9" stroke="#9aa5c9" stroke-width="1.51"/><path d="M1894,-195L2063,-51L2116,-160Z" fill="#9f4a68" stroke="#9f4a68" stroke-width="1.51"/><path d="M1894,-195L1942,-47L2063,-51Z" fill="#a7586d" stroke="#a7586d" stroke-width="1.51"/><path d="M1893,677L1988,855L2109,734Z" fill="#8ca3cf" stroke="#8ca3cf" stroke-width="1.51"/><path d="M1942,-47L1927,86L2063,-51Z" fill="#ad6475" stroke="#ad6475" stroke-width="1.51"/><path d="M1942,1024L1903,1178L2068,1182Z" fill="#4f7ab7" stroke="#4f7ab7" stroke-width="1.51"/><path d="M1988,855L1942,1024L2087,985Z" fill="#6a8ec3" stroke="#6a8ec3" stroke-width="1.51"/><path d="M1903,1178L1981,1274L2068,1182Z" fill="#436aaf" stroke="#436aaf" stroke-width="1.51"/><path d="M1959,485L1893,677L2046,566Z" fill="#a5afbf" stroke="#a5afbf" stroke-width="1.51"/><path d="M843,-264L1228,-217L1347,-237Z" fill="#db9082" stroke="#db9082" stroke-width="1.51"/><path d="M1812,655L1893,677L1959,485Z" fill="#a6b9c8" stroke="#a6b9c8" stroke-width="1.51"/><path d="M1927,86L1815,247L1968,273Z" fill="#b4918e" stroke="#b4918e" stroke-width="1.51"/><path d="M1757,377L1959,485L1975,336Z" fill="#b0adaa" stroke="#b0adaa" stroke-width="1.51"/><path d="M1893,677L1744,790L1988,855Z" fill="#8fb2d6" stroke="#8fb2d6" stroke-width="1.51"/><path d="M1744,790L1831,995L1988,855Z" fill="#7facd2" stroke="#7facd2" stroke-width="1.51"/><path d="M1831,995L1942,1024L1988,855Z" fill="#6b9ac8" stroke="#6b9ac8" stroke-width="1.51"/><path d="M1770,515L1812,655L1959,485Z" fill="#b0c0c2" stroke="#b0c0c2" stroke-width="1.51"/><path d="M1903,1178L1835,1249L1981,1274Z" fill="#4570b2" stroke="#4570b2" stroke-width="1.51"/><path d="M1968,273L1815,247L1975,336Z" fill="#b19b98" stroke="#b19b98" stroke-width="1.51"/><path d="M1815,247L1757,377L1975,336Z" fill="#b7a9a1" stroke="#b7a9a1" stroke-width="1.51"/><path d="M1894,-195L1826,-55L1942,-47Z" fill="#ac6271" stroke="#ac6271" stroke-width="1.51"/><path d="M1757,377L1770,515L1959,485Z" fill="#b5bbb6" stroke="#b5bbb6" stroke-width="1.51"/><path d="M1661,-205L1745,-160L1894,-195Z" fill="#ac6874" stroke="#ac6874" stroke-width="1.51"/><path d="M1826,-55L1813,74L1927,86Z" fill="#b87a80" stroke="#b87a80" stroke-width="1.51"/><path d="M1813,74L1815,247L1927,86Z" fill="#b98c8a" stroke="#b98c8a" stroke-width="1.51"/><path d="M1826,-55L1927,86L1942,-47Z" fill="#b16e7a" stroke="#b16e7a" stroke-width="1.51"/><path d="M1831,995L1903,1178L1942,1024Z" fill="#5c8ec2" stroke="#5c8ec2" stroke-width="1.51"/><path d="M1831,995L1788,1172L1903,1178Z" fill="#5a8cc1" stroke="#5a8cc1" stroke-width="1.51"/><path d="M1812,655L1744,790L1893,677Z" fill="#9fbfdd" stroke="#9fbfdd" stroke-width="1.51"/><path d="M1745,-160L1826,-55L1894,-195Z" fill="#ae6672" stroke="#ae6672" stroke-width="1.51"/><path d="M1788,1172L1835,1249L1903,1178Z" fill="#4d7eb9" stroke="#4d7eb9" stroke-width="1.51"/><path d="M1611,114L1641,238L1813,74Z" fill="#c7a193" stroke="#c7a193" stroke-width="1.51"/><path d="M1813,74L1641,238L1815,247Z" fill="#c1a095" stroke="#c1a095" stroke-width="1.51"/><path d="M1658,-75L1813,74L1826,-55Z" fill="#bd7d7f" stroke="#bd7d7f" stroke-width="1.51"/><path d="M1744,790L1671,812L1831,995Z" fill="#8abbd9" stroke="#8abbd9" stroke-width="1.51"/><path d="M1671,812L1582,944L1831,995Z" fill="#87bad9" stroke="#87bad9" stroke-width="1.51"/><path d="M1596,1139L1788,1172L1831,995Z" fill="#669ac7" stroke="#669ac7" stroke-width="1.51"/><path d="M1582,944L1596,1139L1831,995Z" fill="#77afd2" stroke="#77afd2" stroke-width="1.51"/><path d="M1788,1172L1615,1274L1835,1249Z" fill="#5683bc" stroke="#5683bc" stroke-width="1.51"/><path d="M1770,515L1686,534L1812,655Z" fill="#b6cbca" stroke="#b6cbca" stroke-width="1.51"/><path d="M1745,-160L1658,-75L1826,-55Z" fill="#b97578" stroke="#b97578" stroke-width="1.51"/><path d="M1596,667L1744,790L1812,655Z" fill="#a8cbe2" stroke="#a8cbe2" stroke-width="1.51"/><path d="M1658,-75L1611,114L1813,74Z" fill="#c68e88" stroke="#c68e88" stroke-width="1.51"/><path d="M1641,238L1757,377L1815,247Z" fill="#c0b2a3" stroke="#c0b2a3" stroke-width="1.51"/><path d="M1686,534L1596,667L1812,655Z" fill="#b5d0d5" stroke="#b5d0d5" stroke-width="1.51"/><path d="M1639,382L1686,534L1757,377Z" fill="#c0c9b9" stroke="#c0c9b9" stroke-width="1.51"/><path d="M1757,377L1686,534L1770,515Z" fill="#bcc8bd" stroke="#bcc8bd" stroke-width="1.51"/><path d="M1596,1139L1615,1274L1788,1172Z" fill="#6093c4" stroke="#6093c4" stroke-width="1.51"/><path d="M1596,667L1671,812L1744,790Z" fill="#a4cde2" stroke="#a4cde2" stroke-width="1.51"/><path d="M1641,238L1639,382L1757,377Z" fill="#c4c0ac" stroke="#c4c0ac" stroke-width="1.51"/><path d="M1661,-205L1658,-75L1745,-160Z" fill="#b97679" stroke="#b97679" stroke-width="1.51"/><path d="M1535,70L1611,114L1658,-75Z" fill="#d0968c" stroke="#d0968c" stroke-width="1.51"/><path d="M1541,861L1582,944L1671,812Z" fill="#99cae1" stroke="#99cae1" stroke-width="1.51"/><path d="M1639,382L1494,526L1686,534Z" fill="#c8d6c4" stroke="#c8d6c4" stroke-width="1.51"/><path d="M1494,526L1596,667L1686,534Z" fill="#c5dcd4" stroke="#c5dcd4" stroke-width="1.51"/><path d="M1492,336L1639,382L1641,238Z" fill="#cec6ae" stroke="#cec6ae" stroke-width="1.51"/><path d="M1495,271L1492,336L1641,238Z" fill="#d3c5ab" stroke="#d3c5ab" stroke-width="1.51"/><path d="M1481,-35L1535,70L1658,-75Z" fill="#d09389" stroke="#d09389" stroke-width="1.51"/><path d="M1481,-35L1658,-75L1661,-205Z" fill="#c7827e" stroke="#c7827e" stroke-width="1.51"/><path d="M1466,-241L1481,-35L1661,-205Z" fill="#c5827f" stroke="#c5827f" stroke-width="1.51"/><path d="M1596,667L1541,861L1671,812Z" fill="#a8d1e5" stroke="#a8d1e5" stroke-width="1.51"/><path d="M1582,944L1468,986L1596,1139Z" fill="#86bad9" stroke="#86bad9" stroke-width="1.51"/><path d="M1468,986L1501,1146L1596,1139Z" fill="#80b2d4" stroke="#80b2d4" stroke-width="1.51"/><path d="M1447,733L1541,861L1596,667Z" fill="#b4daea" stroke="#b4daea" stroke-width="1.51"/><path d="M1492,336L1494,526L1639,382Z" fill="#d0d6be" stroke="#d0d6be" stroke-width="1.51"/><path d="M1611,114L1495,271L1641,238Z" fill="#d1b69f" stroke="#d1b69f" stroke-width="1.51"/><path d="M1596,1139L1501,1146L1615,1274Z" fill="#6d9cc9" stroke="#6d9cc9" stroke-width="1.51"/><path d="M1535,70L1495,271L1611,114Z" fill="#d5b09a" stroke="#d5b09a" stroke-width="1.51"/><path d="M1501,1146L1511,1318L1615,1274Z" fill="#6d93c5" stroke="#6d93c5" stroke-width="1.51"/><path d="M1494,526L1447,733L1596,667Z" fill="#c6e1e3" stroke="#c6e1e3" stroke-width="1.51"/><path d="M1388,110L1495,271L1535,70Z" fill="#ddb69e" stroke="#ddb69e" stroke-width="1.51"/><path d="M1541,861L1468,986L1582,944Z" fill="#97c8e0" stroke="#97c8e0" stroke-width="1.51"/><path d="M1466,-241L1355,-63L1481,-35Z" fill="#d69084" stroke="#d69084" stroke-width="1.51"/><path d="M1501,1146L1372,1163L1511,1318Z" fill="#78a2cd" stroke="#78a2cd" stroke-width="1.51"/><path d="M1358,860L1468,986L1541,861Z" fill="#a5d3e6" stroke="#a5d3e6" stroke-width="1.51"/><path d="M1447,733L1358,860L1541,861Z" fill="#b3dceb" stroke="#b3dceb" stroke-width="1.51"/><path d="M1492,336L1308,372L1494,526Z" fill="#dce0c3" stroke="#dce0c3" stroke-width="1.51"/><path d="M1481,-35L1388,110L1535,70Z" fill="#dda493" stroke="#dda493" stroke-width="1.51"/><path d="M1282,523L1289,706L1447,733Z" fill="#d7edeb" stroke="#d7edeb" stroke-width="1.51"/><path d="M1347,-237L1355,-63L1466,-241Z" fill="#d08b84" stroke="#d08b84" stroke-width="1.51"/><path d="M1282,523L1447,733L1494,526Z" fill="#d6ebdf" stroke="#d6ebdf" stroke-width="1.51"/><path d="M1308,372L1282,523L1494,526Z" fill="#e2e9ce" stroke="#e2e9ce" stroke-width="1.51"/><path d="M1468,986L1368,1000L1501,1146Z" fill="#8fc1db" stroke="#8fc1db" stroke-width="1.51"/><path d="M1368,1000L1372,1163L1501,1146Z" fill="#8bb8d8" stroke="#8bb8d8" stroke-width="1.51"/><path d="M1372,1163L1305,1343L1511,1318Z" fill="#7d98c9" stroke="#7d98c9" stroke-width="1.51"/><path d="M1388,110L1280,198L1495,271Z" fill="#e4c4a5" stroke="#e4c4a5" stroke-width="1.51"/><path d="M843,-264L998,-198L1228,-217Z" fill="#e19475" stroke="#e19475" stroke-width="1.51"/><path d="M1355,-63L1388,110L1481,-35Z" fill="#e0a291" stroke="#e0a291" stroke-width="1.51"/><path d="M1308,372L1492,336L1495,271Z" fill="#ded5b7" stroke="#ded5b7" stroke-width="1.51"/><path d="M1280,198L1308,372L1495,271Z" fill="#e5d2b2" stroke="#e5d2b2" stroke-width="1.51"/><path d="M1358,860L1368,1000L1468,986Z" fill="#a3d1e5" stroke="#a3d1e5" stroke-width="1.51"/><path d="M331,-255L594,-223L843,-264Z" fill="#da764c" stroke="#da764c" stroke-width="1.51"/><path d="M984,1288L881,1334L1305,1343Z" fill="#9d9bbb" stroke="#9d9bbb" stroke-width="1.51"/><path d="M1289,706L1358,860L1447,733Z" fill="#c5e5f0" stroke="#c5e5f0" stroke-width="1.51"/><path d="M1231,1293L984,1288L1305,1343Z" fill="#949cc9" stroke="#949cc9" stroke-width="1.51"/><path d="M1280,198L1238,295L1308,372Z" fill="#edd8b5" stroke="#edd8b5" stroke-width="1.51"/><path d="M1347,-237L1228,-217L1355,-63Z" fill="#d98f86" stroke="#d98f86" stroke-width="1.51"/><path d="M1289,706L1218,796L1358,860Z" fill="#cae7f2" stroke="#cae7f2" stroke-width="1.51"/><path d="M1358,860L1217,1014L1368,1000Z" fill="#abd4e6" stroke="#abd4e6" stroke-width="1.51"/><path d="M1231,1293L1305,1343L1372,1163Z" fill="#889fcd" stroke="#889fcd" stroke-width="1.51"/><path d="M1368,1000L1217,1014L1372,1163Z" fill="#9bc5df" stroke="#9bc5df" stroke-width="1.51"/><path d="M1172,115L1280,198L1388,110Z" fill="#efc0a3" stroke="#efc0a3" stroke-width="1.51"/><path d="M1239,-48L1172,115L1388,110Z" fill="#f0b19a" stroke="#f0b19a" stroke-width="1.51"/><path d="M1355,-63L1239,-48L1388,110Z" fill="#e7a593" stroke="#e7a593" stroke-width="1.51"/><path d="M1282,523L1211,578L1289,706Z" fill="#e5f3e5" stroke="#e5f3e5" stroke-width="1.51"/><path d="M1228,-217L1239,-48L1355,-63Z" fill="#e59889" stroke="#e59889" stroke-width="1.51"/><path d="M1139,1175L1231,1293L1372,1163Z" fill="#91add4" stroke="#91add4" stroke-width="1.51"/><path d="M1217,1014L1139,1175L1372,1163Z" fill="#9dbedc" stroke="#9dbedc" stroke-width="1.51"/><path d="M1218,796L1217,1014L1358,860Z" fill="#bce0ed" stroke="#bce0ed" stroke-width="1.51"/><path d="M1211,578L1198,664L1289,706Z" fill="#e3f3ee" stroke="#e3f3ee" stroke-width="1.51"/><path d="M1136,335L1282,523L1308,372Z" fill="#efeac8" stroke="#efeac8" stroke-width="1.51"/><path d="M1238,295L1136,335L1308,372Z" fill="#f1e2bd" stroke="#f1e2bd" stroke-width="1.51"/><path d="M1136,335L1041,491L1211,578Z" fill="#f6f3c9" stroke="#f6f3c9" stroke-width="1.51"/><path d="M1088,972L1217,1014L1218,796Z" fill="#bfdeea" stroke="#bfdeea" stroke-width="1.51"/><path d="M1136,335L1211,578L1282,523Z" fill="#f1f2d2" stroke="#f1f2d2" stroke-width="1.51"/><path d="M1198,664L1218,796L1289,706Z" fill="#daf0f6" stroke="#daf0f6" stroke-width="1.51"/><path d="M1172,115L1238,295L1280,198Z" fill="#f4cdab" stroke="#f4cdab" stroke-width="1.51"/><path d="M1049,824L1088,972L1218,796Z" fill="#cee8e8" stroke="#cee8e8" stroke-width="1.51"/><path d="M998,-198L996,-61L1228,-217Z" fill="#ea997b" stroke="#ea997b" stroke-width="1.51"/><path d="M1172,115L1080,212L1238,295Z" fill="#f8d1a7" stroke="#f8d1a7" stroke-width="1.51"/><path d="M1080,212L1136,335L1238,295Z" fill="#f7dcb1" stroke="#f7dcb1" stroke-width="1.51"/><path d="M1228,-217L996,-61L1239,-48Z" fill="#ee9c86" stroke="#ee9c86" stroke-width="1.51"/><path d="M996,-61L1172,115L1239,-48Z" fill="#f7ad8f" stroke="#f7ad8f" stroke-width="1.51"/><path d="M1030,413L1041,491L1136,335Z" fill="#faf0ba" stroke="#faf0ba" stroke-width="1.51"/><path d="M996,-61L983,46L1172,115Z" fill="#fcb489" stroke="#fcb489" stroke-width="1.51"/><path d="M1088,972L1139,1175L1217,1014Z" fill="#aecddd" stroke="#aecddd" stroke-width="1.51"/><path d="M1198,664L1046,745L1218,796Z" fill="#dff1f1" stroke="#dff1f1" stroke-width="1.51"/><path d="M1139,1175L1062,1180L1231,1293Z" fill="#9bb0ce" stroke="#9bb0ce" stroke-width="1.51"/><path d="M1062,1180L984,1288L1231,1293Z" fill="#9ea8c5" stroke="#9ea8c5" stroke-width="1.51"/><path d="M1046,745L1049,824L1218,796Z" fill="#dbefe9" stroke="#dbefe9" stroke-width="1.51"/><path d="M1041,491L1198,664L1211,578Z" fill="#f1f8dc" stroke="#f1f8dc" stroke-width="1.51"/><path d="M1088,972L1062,1180L1139,1175Z" fill="#acc4d3" stroke="#acc4d3" stroke-width="1.51"/><path d="M1041,491L1046,745L1198,664Z" fill="#eff8e0" stroke="#eff8e0" stroke-width="1.51"/><path d="M158,1296L-40,1307L338,1318Z" fill="#a6536f" stroke="#a6536f" stroke-width="1.51"/><path d="M1041,491L934,674L1046,745Z" fill="#f4fad6" stroke="#f4fad6" stroke-width="1.51"/><path d="M983,46L1080,212L1172,115Z" fill="#fcc495" stroke="#fcc495" stroke-width="1.51"/><path d="M1080,212L1030,413L1136,335Z" fill="#fbe4ae" stroke="#fbe4ae" stroke-width="1.51"/><path d="M857,199L854,380L1030,413Z" fill="#ffe69c" stroke="#ffe69c" stroke-width="1.51"/><path d="M898,940L831,1096L1062,1180Z" fill="#bbccc4" stroke="#bbccc4" stroke-width="1.51"/><path d="M857,199L1030,413L1080,212Z" fill="#ffe09c" stroke="#ffe09c" stroke-width="1.51"/><path d="M983,46L902,142L1080,212Z" fill="#ffc88b" stroke="#ffc88b" stroke-width="1.51"/><path d="M898,940L1062,1180L1088,972Z" fill="#bcd4d0" stroke="#bcd4d0" stroke-width="1.51"/><path d="M1049,824L898,940L1088,972Z" fill="#cee5d8" stroke="#cee5d8" stroke-width="1.51"/><path d="M902,142L857,199L1080,212Z" fill="#ffd18b" stroke="#ffd18b" stroke-width="1.51"/><path d="M883,494L934,674L1041,491Z" fill="#fefec1" stroke="#fefec1" stroke-width="1.51"/><path d="M831,1096L984,1288L1062,1180Z" fill="#adb9bd" stroke="#adb9bd" stroke-width="1.51"/><path d="M1046,745L888,799L1049,824Z" fill="#e2f1dc" stroke="#e2f1dc" stroke-width="1.51"/><path d="M888,799L898,940L1049,824Z" fill="#dbecd4" stroke="#dbecd4" stroke-width="1.51"/><path d="M934,674L888,799L1046,745Z" fill="#ecf6da" stroke="#ecf6da" stroke-width="1.51"/><path d="M1030,413L883,494L1041,491Z" fill="#fef7b7" stroke="#fef7b7" stroke-width="1.51"/><path d="M927,-32L983,46L996,-61Z" fill="#fcaf7a" stroke="#fcaf7a" stroke-width="1.51"/><path d="M854,380L883,494L1030,413Z" fill="#fff2ab" stroke="#fff2ab" stroke-width="1.51"/><path d="M831,1096L881,1334L984,1288Z" fill="#aaabb3" stroke="#aaabb3" stroke-width="1.51"/><path d="M927,-32L996,-61L998,-198Z" fill="#f6a373" stroke="#f6a373" stroke-width="1.51"/><path d="M843,-264L927,-32L998,-198Z" fill="#ed996b" stroke="#ed996b" stroke-width="1.51"/><path d="M927,-32L902,142L983,46Z" fill="#ffb87e" stroke="#ffb87e" stroke-width="1.51"/><path d="M754,1295L640,1345L881,1334Z" fill="#a7909e" stroke="#a7909e" stroke-width="1.51"/><path d="M831,1096L754,1295L881,1334Z" fill="#aba6ab" stroke="#aba6ab" stroke-width="1.51"/><path d="M690,569L761,717L883,494Z" fill="#fbf1b7" stroke="#fbf1b7" stroke-width="1.51"/><path d="M843,-264L739,-194L927,-32Z" fill="#ec9463" stroke="#ec9463" stroke-width="1.51"/><path d="M739,-194L702,-48L927,-32Z" fill="#f49962" stroke="#f49962" stroke-width="1.51"/><path d="M774,117L902,142L927,-32Z" fill="#ffb879" stroke="#ffb879" stroke-width="1.51"/><path d="M761,717L888,799L934,674Z" fill="#eef0d1" stroke="#eef0d1" stroke-width="1.51"/><path d="M883,494L761,717L934,674Z" fill="#f8f5c5" stroke="#f8f5c5" stroke-width="1.51"/><path d="M771,956L831,1096L898,940Z" fill="#c7d2bf" stroke="#c7d2bf" stroke-width="1.51"/><path d="M702,-48L774,117L927,-32Z" fill="#fba96d" stroke="#fba96d" stroke-width="1.51"/><path d="M729,1129L754,1295L831,1096Z" fill="#b1b0ac" stroke="#b1b0ac" stroke-width="1.51"/><path d="M780,211L854,380L857,199Z" fill="#ffd68b" stroke="#ffd68b" stroke-width="1.51"/><path d="M728,809L771,956L888,799Z" fill="#dde2c5" stroke="#dde2c5" stroke-width="1.51"/><path d="M888,799L771,956L898,940Z" fill="#d5e1c8" stroke="#d5e1c8" stroke-width="1.51"/><path d="M774,117L857,199L902,142Z" fill="#ffc47e" stroke="#ffc47e" stroke-width="1.51"/><path d="M854,380L701,390L883,494Z" fill="#ffea9f" stroke="#ffea9f" stroke-width="1.51"/><path d="M761,717L728,809L888,799Z" fill="#e8e8c8" stroke="#e8e8c8" stroke-width="1.51"/><path d="M701,390L690,569L883,494Z" fill="#ffeca3" stroke="#ffeca3" stroke-width="1.51"/><path d="M594,-223L739,-194L843,-264Z" fill="#df8659" stroke="#df8659" stroke-width="1.51"/><path d="M780,211L701,390L854,380Z" fill="#ffdc8e" stroke="#ffdc8e" stroke-width="1.51"/><path d="M774,117L780,211L857,199Z" fill="#ffc67d" stroke="#ffc67d" stroke-width="1.51"/><path d="M771,956L729,1129L831,1096Z" fill="#bfc5b6" stroke="#bfc5b6" stroke-width="1.51"/><path d="M404,1302L338,1318L640,1345Z" fill="#aa7482" stroke="#aa7482" stroke-width="1.51"/><path d="M535,988L729,1129L771,956Z" fill="#c5c3af" stroke="#c5c3af" stroke-width="1.51"/><path d="M627,886L535,988L771,956Z" fill="#d2cab1" stroke="#d2cab1" stroke-width="1.51"/><path d="M728,809L627,886L771,956Z" fill="#d9d9bb" stroke="#d9d9bb" stroke-width="1.51"/><path d="M702,-48L630,140L774,117Z" fill="#fdab69" stroke="#fdab69" stroke-width="1.51"/><path d="M551,280L701,390L780,211Z" fill="#fecf80" stroke="#fecf80" stroke-width="1.51"/><path d="M630,140L551,280L780,211Z" fill="#fec072" stroke="#fec072" stroke-width="1.51"/><path d="M774,117L630,140L780,211Z" fill="#febe74" stroke="#febe74" stroke-width="1.51"/><path d="M729,1129L640,1345L754,1295Z" fill="#ab9b9f" stroke="#ab9b9f" stroke-width="1.51"/><path d="M551,280L580,361L701,390Z" fill="#fed080" stroke="#fed080" stroke-width="1.51"/><path d="M550,1155L640,1345L729,1129Z" fill="#b09e9c" stroke="#b09e9c" stroke-width="1.51"/><path d="M331,-255L406,-217L594,-223Z" fill="#da6640" stroke="#da6640" stroke-width="1.51"/><path d="M539,744L728,809L761,717Z" fill="#ece1bd" stroke="#ece1bd" stroke-width="1.51"/><path d="M690,569L539,744L761,717Z" fill="#f6e4ba" stroke="#f6e4ba" stroke-width="1.51"/><path d="M612,559L539,744L690,569Z" fill="#fbe1ab" stroke="#fbe1ab" stroke-width="1.51"/><path d="M612,559L690,569L701,390Z" fill="#ffe79d" stroke="#ffe79d" stroke-width="1.51"/><path d="M567,-93L702,-48L739,-194Z" fill="#f08c55" stroke="#f08c55" stroke-width="1.51"/><path d="M535,988L550,1155L729,1129Z" fill="#beb0a2" stroke="#beb0a2" stroke-width="1.51"/><path d="M594,-223L567,-93L739,-194Z" fill="#e78251" stroke="#e78251" stroke-width="1.51"/><path d="M539,744L627,886L728,809Z" fill="#e5d8b7" stroke="#e5d8b7" stroke-width="1.51"/><path d="M580,361L612,559L701,390Z" fill="#ffdd8f" stroke="#ffdd8f" stroke-width="1.51"/><path d="M567,-93L630,140L702,-48Z" fill="#f8995c" stroke="#f8995c" stroke-width="1.51"/><path d="M580,361L411,427L612,559Z" fill="#ffd488" stroke="#ffd488" stroke-width="1.51"/><path d="M411,427L433,560L612,559Z" fill="#ffd58d" stroke="#ffd58d" stroke-width="1.51"/><path d="M539,744L480,823L627,886Z" fill="#e6cfae" stroke="#e6cfae" stroke-width="1.51"/><path d="M465,218L551,280L630,140Z" fill="#feb668" stroke="#feb668" stroke-width="1.51"/><path d="M567,-93L438,100L630,140Z" fill="#fa9758" stroke="#fa9758" stroke-width="1.51"/><path d="M550,1155L404,1302L640,1345Z" fill="#ad878d" stroke="#ad878d" stroke-width="1.51"/><path d="M475,-97L438,100L567,-93Z" fill="#f3854c" stroke="#f3854c" stroke-width="1.51"/><path d="M433,560L539,744L612,559Z" fill="#fcd8a2" stroke="#fcd8a2" stroke-width="1.51"/><path d="M438,100L465,218L630,140Z" fill="#fda75e" stroke="#fda75e" stroke-width="1.51"/><path d="M535,988L467,1038L550,1155Z" fill="#c4ad9d" stroke="#c4ad9d" stroke-width="1.51"/><path d="M480,823L535,988L627,886Z" fill="#dac7aa" stroke="#dac7aa" stroke-width="1.51"/><path d="M433,560L409,689L539,744Z" fill="#f9cfa3" stroke="#f9cfa3" stroke-width="1.51"/><path d="M475,-97L567,-93L594,-223Z" fill="#eb7b49" stroke="#eb7b49" stroke-width="1.51"/><path d="M427,1164L404,1302L550,1155Z" fill="#b28c8c" stroke="#b28c8c" stroke-width="1.51"/><path d="M406,-217L475,-97L594,-223Z" fill="#e37143" stroke="#e37143" stroke-width="1.51"/><path d="M551,280L411,427L580,361Z" fill="#ffc879" stroke="#ffc879" stroke-width="1.51"/><path d="M-140,-215L-10,-179L331,-255Z" fill="#cc302b" stroke="#cc302b" stroke-width="1.51"/><path d="M480,823L467,1038L535,988Z" fill="#d3baa2" stroke="#d3baa2" stroke-width="1.51"/><path d="M467,1038L427,1164L550,1155Z" fill="#bd9f94" stroke="#bd9f94" stroke-width="1.51"/><path d="M465,218L411,427L551,280Z" fill="#febd6e" stroke="#febd6e" stroke-width="1.51"/><path d="M409,689L480,823L539,744Z" fill="#f0cdaa" stroke="#f0cdaa" stroke-width="1.51"/><path d="M244,283L411,427L465,218Z" fill="#fdaf68" stroke="#fdaf68" stroke-width="1.51"/><path d="M323,-78L438,100L475,-97Z" fill="#f27b47" stroke="#f27b47" stroke-width="1.51"/><path d="M406,-217L323,-78L475,-97Z" fill="#e96a3e" stroke="#e96a3e" stroke-width="1.51"/><path d="M409,689L313,789L480,823Z" fill="#eec1a4" stroke="#eec1a4" stroke-width="1.51"/><path d="M291,968L467,1038L480,823Z" fill="#d5b29c" stroke="#d5b29c" stroke-width="1.51"/><path d="M313,789L291,968L480,823Z" fill="#e1b69d" stroke="#e1b69d" stroke-width="1.51"/><path d="M301,1129L427,1164L467,1038Z" fill="#bf978f" stroke="#bf978f" stroke-width="1.51"/><path d="M411,427L338,542L433,560Z" fill="#ffc985" stroke="#ffc985" stroke-width="1.51"/><path d="M438,100L240,124L465,218Z" fill="#fa9554" stroke="#fa9554" stroke-width="1.51"/><path d="M291,968L301,1129L467,1038Z" fill="#c79c91" stroke="#c79c91" stroke-width="1.51"/><path d="M240,124L244,283L465,218Z" fill="#fb9856" stroke="#fb9856" stroke-width="1.51"/><path d="M338,1318L404,1302L427,1164Z" fill="#ae7883" stroke="#ae7883" stroke-width="1.51"/><path d="M301,1129L338,1318L427,1164Z" fill="#b38185" stroke="#b38185" stroke-width="1.51"/><path d="M338,542L409,689L433,560Z" fill="#feca93" stroke="#feca93" stroke-width="1.51"/><path d="M323,-78L240,124L438,100Z" fill="#f67c49" stroke="#f67c49" stroke-width="1.51"/><path d="M-10,-179L111,-160L331,-255Z" fill="#d43d2f" stroke="#d43d2f" stroke-width="1.51"/><path d="M338,542L271,676L409,689Z" fill="#fcc196" stroke="#fcc196" stroke-width="1.51"/><path d="M244,283L243,445L411,427Z" fill="#fdb16e" stroke="#fdb16e" stroke-width="1.51"/><path d="M331,-255L323,-78L406,-217Z" fill="#df5d3b" stroke="#df5d3b" stroke-width="1.51"/><path d="M271,676L313,789L409,689Z" fill="#f5bda1" stroke="#f5bda1" stroke-width="1.51"/><path d="M243,445L338,542L411,427Z" fill="#ffbd7b" stroke="#ffbd7b" stroke-width="1.51"/><path d="M184,812L291,968L313,789Z" fill="#e2aa96" stroke="#e2aa96" stroke-width="1.51"/><path d="M128,-58L240,124L323,-78Z" fill="#f0643e" stroke="#f0643e" stroke-width="1.51"/><path d="M111,-160L323,-78L331,-255Z" fill="#df4f36" stroke="#df4f36" stroke-width="1.51"/><path d="M181,513L271,676L338,542Z" fill="#feba87" stroke="#feba87" stroke-width="1.51"/><path d="M243,445L181,513L338,542Z" fill="#ffb67b" stroke="#ffb67b" stroke-width="1.51"/><path d="M301,1129L158,1296L338,1318Z" fill="#af6c7b" stroke="#af6c7b" stroke-width="1.51"/><path d="M111,-160L128,-58L323,-78Z" fill="#e54f33" stroke="#e54f33" stroke-width="1.51"/><path d="M240,124L172,235L244,283Z" fill="#f88d51" stroke="#f88d51" stroke-width="1.51"/><path d="M291,968L112,1091L301,1129Z" fill="#c48b87" stroke="#c48b87" stroke-width="1.51"/><path d="M271,676L161,732L313,789Z" fill="#f2b19b" stroke="#f2b19b" stroke-width="1.51"/><path d="M161,732L184,812L313,789Z" fill="#ecab96" stroke="#ecab96" stroke-width="1.51"/><path d="M90,1030L112,1091L291,968Z" fill="#c68a85" stroke="#c68a85" stroke-width="1.51"/><path d="M112,1091L158,1296L301,1129Z" fill="#b4737c" stroke="#b4737c" stroke-width="1.51"/><path d="M128,-58L87,57L240,124Z" fill="#ef633d" stroke="#ef633d" stroke-width="1.51"/><path d="M173,444L243,445L244,283Z" fill="#fca869" stroke="#fca869" stroke-width="1.51"/><path d="M184,812L90,1030L291,968Z" fill="#d4988c" stroke="#d4988c" stroke-width="1.51"/><path d="M181,513L161,732L271,676Z" fill="#f9b18e" stroke="#f9b18e" stroke-width="1.51"/><path d="M173,444L181,513L243,445Z" fill="#fdad72" stroke="#fdad72" stroke-width="1.51"/><path d="M172,235L173,444L244,283Z" fill="#fa9c5e" stroke="#fa9c5e" stroke-width="1.51"/><path d="M21,686L161,732L181,513Z" fill="#f5a889" stroke="#f5a889" stroke-width="1.51"/><path d="M87,57L172,235L240,124Z" fill="#f37947" stroke="#f37947" stroke-width="1.51"/><path d="M112,1091L7,1140L158,1296Z" fill="#af6975" stroke="#af6975" stroke-width="1.51"/><path d="M-53,205L-51,421L172,235Z" fill="#ef844f" stroke="#ef844f" stroke-width="1.51"/><path d="M87,57L-53,205L172,235Z" fill="#ef7443" stroke="#ef7443" stroke-width="1.51"/><path d="M172,235L-51,421L173,444Z" fill="#f5995e" stroke="#f5995e" stroke-width="1.51"/><path d="M-51,421L38,497L173,444Z" fill="#f59d67" stroke="#f59d67" stroke-width="1.51"/><path d="M38,497L21,686L181,513Z" fill="#f7a779" stroke="#f7a779" stroke-width="1.51"/><path d="M173,444L38,497L181,513Z" fill="#faa870" stroke="#faa870" stroke-width="1.51"/><path d="M-10,979L90,1030L184,812Z" fill="#cf8e86" stroke="#cf8e86" stroke-width="1.51"/><path d="M-40,884L-10,979L184,812Z" fill="#d59086" stroke="#d59086" stroke-width="1.51"/><path d="M161,732L21,686L184,812Z" fill="#eca391" stroke="#eca391" stroke-width="1.51"/><path d="M21,686L-40,884L184,812Z" fill="#e2998a" stroke="#e2998a" stroke-width="1.51"/><path d="M7,1140L-40,1307L158,1296Z" fill="#a6556c" stroke="#a6556c" stroke-width="1.51"/><path d="M33,34L87,57L128,-58Z" fill="#e85536" stroke="#e85536" stroke-width="1.51"/><path d="M15,-85L33,34L128,-58Z" fill="#e24a31" stroke="#e24a31" stroke-width="1.51"/><path d="M111,-160L15,-85L128,-58Z" fill="#de412d" stroke="#de412d" stroke-width="1.51"/><path d="M33,34L-53,205L87,57Z" fill="#ea603a" stroke="#ea603a" stroke-width="1.51"/><path d="M-10,-179L15,-85L111,-160Z" fill="#d63429" stroke="#d63429" stroke-width="1.51"/><path d="M90,1030L7,1140L112,1091Z" fill="#ba777a" stroke="#ba777a" stroke-width="1.51"/><path d="M-10,979L7,1140L90,1030Z" fill="#bd797a" stroke="#bd797a" stroke-width="1.51"/><path d="M-53,205L-146,295L-51,421Z" fill="#e6804f" stroke="#e6804f" stroke-width="1.51"/><path d="M-128,791L-40,884L21,686Z" fill="#db9187" stroke="#db9187" stroke-width="1.51"/><path d="M15,-85L-203,-50L33,34Z" fill="#d93f2e" stroke="#d93f2e" stroke-width="1.51"/><path d="M-135,139L-53,205L33,34Z" fill="#e3613b" stroke="#e3613b" stroke-width="1.51"/><path d="M-118,526L21,686L38,497Z" fill="#f19e74" stroke="#f19e74" stroke-width="1.51"/><path d="M-51,421L-118,526L38,497Z" fill="#ee9767" stroke="#ee9767" stroke-width="1.51"/><path d="M-162,1175L-40,1307L7,1140Z" fill="#a0566c" stroke="#a0566c" stroke-width="1.51"/><path d="M-10,979L-123,979L7,1140Z" fill="#b97779" stroke="#b97779" stroke-width="1.51"/><path d="M-203,-50L-135,139L33,34Z" fill="#db4a34" stroke="#db4a34" stroke-width="1.51"/><path d="M-118,526L-202,665L21,686Z" fill="#e5967c" stroke="#e5967c" stroke-width="1.51"/><path d="M-202,665L-128,791L21,686Z" fill="#de9289" stroke="#de9289" stroke-width="1.51"/><path d="M-140,-215L-203,-50L-10,-179Z" fill="#c62427" stroke="#c62427" stroke-width="1.51"/><path d="M-123,979L-162,1175L7,1140Z" fill="#ab6874" stroke="#ab6874" stroke-width="1.51"/><path d="M-10,-179L-203,-50L15,-85Z" fill="#d12f28" stroke="#d12f28" stroke-width="1.51"/><path d="M-162,1175L-171,1287L-40,1307Z" fill="#964767" stroke="#964767" stroke-width="1.51"/><path d="M-40,884L-123,979L-10,979Z" fill="#c4807e" stroke="#c4807e" stroke-width="1.51"/><path d="M-146,295L-162,412L-51,421Z" fill="#e38858" stroke="#e38858" stroke-width="1.51"/><path d="M-128,791L-123,979L-40,884Z" fill="#c98682" stroke="#c98682" stroke-width="1.51"/><path d="M-162,412L-118,526L-51,421Z" fill="#e69063" stroke="#e69063" stroke-width="1.51"/><path d="M-135,139L-146,295L-53,205Z" fill="#e06f43" stroke="#e06f43" stroke-width="1.51"/><path d="M-128,791L-202,665L-123,979Z" fill="#cc8884" stroke="#cc8884" stroke-width="1.51"/><path d="M-162,412L-202,665L-118,526Z" fill="#e3956d" stroke="#e3956d" stroke-width="1.51"/><path d="M-202,665L-162,1175L-123,979Z" fill="#b97b7e" stroke="#b97b7e" stroke-width="1.51"/><path d="M-203,-50L-146,295L-135,139Z" fill="#d85a3c" stroke="#d85a3c" stroke-width="1.51"/><path d="M-203,-50L-162,412L-146,295Z" fill="#da6c44" stroke="#da6c44" stroke-width="1.51"/><path d="M-203,-50L-202,665L-162,412Z" fill="#db7f53" stroke="#db7f53" stroke-width="1.51"/><path d="M-202,665L-171,1287L-162,1175Z" fill="#a96c77" stroke="#a96c77" stroke-width="1.51"/></svg>